<?xml version="1.0" encoding="utf-8" standalone="no"?><!DOCTYPE svg PUBLIC "-//W3C//DTD SVG 20010904//EN" "http://www.w3.org/TR/2001/REC-SVG-20010904/DTD/svg10.dtd"><svg xmlns="http://www.w3.org/2000/svg" width="224" height="314" xmlns:xlink="http://www.w3.org/1999/xlink"><source><![CDATA[Created with Raphaël 2.1.2Activity ResumedKeyEvent: KEYCODE_MENUActivity: onPause()Activity: onStop()]]></source><desc style="-webkit-tap-highlight-color: rgba(0, 0, 0, 0);">Created with Raphaël 2.1.2</desc><defs style="-webkit-tap-highlight-color: rgba(0, 0, 0, 0);"><path stroke-linecap="round" d="M5,0 0,2.5 5,5z" id="raphael-marker-block-obj165" style="-webkit-tap-highlight-color: rgba(0, 0, 0, 0);"></path><marker id="raphael-marker-endblock33-obj166" markerHeight="3" markerWidth="3" orient="auto" refX="1.5" refY="1.5" style="-webkit-tap-highlight-color: rgba(0, 0, 0, 0);"><use xlink:href="#raphael-marker-block-obj165" transform="rotate(180 1.5 1.5) scale(0.6,0.6)" stroke-width="1.6667" fill="black" stroke="none" style="-webkit-tap-highlight-color: rgba(0, 0, 0, 0);"></use></marker></defs><rect x="0" y="0" width="135.89697265625" height="36.65673828125" r="20" rx="20" ry="20" fill="#ffffff" stroke="#000000" style="-webkit-tap-highlight-color: rgba(0, 0, 0, 0);" stroke-width="2" class="flowchart" id="st" transform="matrix(1,0,0,1,45.2507,4)"></rect><text x="10" y="18.328369140625" text-anchor="start" font="10px &quot;Arial&quot;" stroke="none" fill="#000000" style="-webkit-tap-highlight-color: rgba(0, 0, 0, 0); text-anchor: start; font: 15px Arial;" id="stt" class="flowchartt" font-size="15px" transform="matrix(1,0,0,1,45.2507,4)" stroke-width="1"><tspan dy="5.171630859375" style="-webkit-tap-highlight-color: rgba(0, 0, 0, 0);">Activity Resumed</tspan></text><rect x="0" y="0" width="218.3984375" height="36.65673828125" r="0" rx="0" ry="0" fill="#ffffff" stroke="#000000" style="-webkit-tap-highlight-color: rgba(0, 0, 0, 0);" stroke-width="2" class="flowchart" id="op" transform="matrix(1,0,0,1,4,94.6567)"></rect><text x="10" y="18.328369140625" text-anchor="start" font="10px &quot;Arial&quot;" stroke="none" fill="#000000" style="-webkit-tap-highlight-color: rgba(0, 0, 0, 0); text-anchor: start; font: 15px Arial;" id="opt" class="flowchartt" font-size="15px" transform="matrix(1,0,0,1,4,94.6567)" stroke-width="1"><tspan dy="5.171630859375" style="-webkit-tap-highlight-color: rgba(0, 0, 0, 0);">KeyEvent: KEYCODE_MENU</tspan></text><rect x="0" y="0" width="145.06884765625" height="36.65673828125" r="20" rx="20" ry="20" fill="#ffffff" stroke="#000000" style="-webkit-tap-highlight-color: rgba(0, 0, 0, 0);" stroke-width="2" class="flowchart" id="state1" transform="matrix(1,0,0,1,40.6648,185.3135)"></rect><text x="10" y="18.328369140625" text-anchor="start" font="10px &quot;Arial&quot;" stroke="none" fill="#000000" style="-webkit-tap-highlight-color: rgba(0, 0, 0, 0); text-anchor: start; font: 15px Arial;" id="state1t" class="flowchartt" font-size="15px" transform="matrix(1,0,0,1,40.6648,185.3135)" stroke-width="1"><tspan dy="5.171630859375" style="-webkit-tap-highlight-color: rgba(0, 0, 0, 0);">Activity: onPause()</tspan></text><rect x="0" y="0" width="133.39697265625" height="36.65673828125" r="20" rx="20" ry="20" fill="#ffffff" stroke="#000000" style="-webkit-tap-highlight-color: rgba(0, 0, 0, 0);" stroke-width="2" class="flowchart" id="state5" transform="matrix(1,0,0,1,46.5007,275.9702)"></rect><text x="10" y="18.328369140625" text-anchor="start" font="10px &quot;Arial&quot;" stroke="none" fill="#000000" style="-webkit-tap-highlight-color: rgba(0, 0, 0, 0); text-anchor: start; font: 15px Arial;" id="state5t" class="flowchartt" font-size="15px" transform="matrix(1,0,0,1,46.5007,275.9702)" stroke-width="1"><tspan dy="5.171630859375" style="-webkit-tap-highlight-color: rgba(0, 0, 0, 0);">Activity: onStop()</tspan><tspan dy="18" x="10" style="-webkit-tap-highlight-color: rgba(0, 0, 0, 0);"></tspan></text><path fill="none" stroke="#000000" d="M113.19921875,40.65673828125C113.19921875,40.65673828125,113.19921875,80.31083822250366,113.19921875,91.65717736585066" stroke-width="2" marker-end="url(#raphael-marker-endblock33-obj166)" style="-webkit-tap-highlight-color: rgba(0, 0, 0, 0);"></path><path fill="none" stroke="#000000" d="M113.19921875,131.3134765625C113.19921875,131.3134765625,113.19921875,170.96757650375366,113.19921875,182.31391564710066" stroke-width="2" marker-end="url(#raphael-marker-endblock33-obj166)" style="-webkit-tap-highlight-color: rgba(0, 0, 0, 0);"></path><path fill="none" stroke="#000000" d="M113.19921875,221.97021484375C113.19921875,221.97021484375,113.19921875,261.62431478500366,113.19921875,272.97065392835066" stroke-width="2" marker-end="url(#raphael-marker-endblock33-obj166)" style="-webkit-tap-highlight-color: rgba(0, 0, 0, 0);"></path></svg>