<?xml version="1.0" encoding="utf-8" standalone="no"?><!DOCTYPE svg PUBLIC "-//W3C//DTD SVG 20010904//EN" "http://www.w3.org/TR/2001/REC-SVG-20010904/DTD/svg10.dtd"><svg xmlns="http://www.w3.org/2000/svg" width="218" height="586" xmlns:xlink="http://www.w3.org/1999/xlink"><source><![CDATA[Created with Raphaël 2.1.2First Activity ResumedCall Second ActivityFirst Activity: onPause()Second Activity: onCreate()Second Activity: onStart()Second Activity: onResume()First Activity: onStop()]]></source><desc style="-webkit-tap-highlight-color: rgba(0, 0, 0, 0);">Created with Raphaël 2.1.2</desc><defs style="-webkit-tap-highlight-color: rgba(0, 0, 0, 0);"><path stroke-linecap="round" d="M5,0 0,2.5 5,5z" id="raphael-marker-block-obj151" style="-webkit-tap-highlight-color: rgba(0, 0, 0, 0);"></path><marker id="raphael-marker-endblock33-obj152" markerHeight="3" markerWidth="3" orient="auto" refX="1.5" refY="1.5" style="-webkit-tap-highlight-color: rgba(0, 0, 0, 0);"><use xlink:href="#raphael-marker-block-obj151" transform="rotate(180 1.5 1.5) scale(0.6,0.6)" stroke-width="1.6667" fill="black" stroke="none" style="-webkit-tap-highlight-color: rgba(0, 0, 0, 0);"></use></marker></defs><rect x="0" y="0" width="168.3671875" height="36.65673828125" r="20" rx="20" ry="20" fill="#ffffff" stroke="#000000" style="-webkit-tap-highlight-color: rgba(0, 0, 0, 0);" stroke-width="2" class="flowchart" id="st" transform="matrix(1,0,0,1,26.1094,4)"></rect><text x="10" y="18.328369140625" text-anchor="start" font="10px &quot;Arial&quot;" stroke="none" fill="#000000" style="-webkit-tap-highlight-color: rgba(0, 0, 0, 0); text-anchor: start; font: 15px Arial;" id="stt" class="flowchartt" font-size="15px" transform="matrix(1,0,0,1,26.1094,4)" stroke-width="1"><tspan dy="5.171630859375" style="-webkit-tap-highlight-color: rgba(0, 0, 0, 0);">First Activity Resumed</tspan></text><rect x="0" y="0" width="151.7265625" height="36.65673828125" r="0" rx="0" ry="0" fill="#ffffff" stroke="#000000" style="-webkit-tap-highlight-color: rgba(0, 0, 0, 0);" stroke-width="2" class="flowchart" id="op" transform="matrix(1,0,0,1,34.4297,94.6567)"></rect><text x="10" y="18.328369140625" text-anchor="start" font="10px &quot;Arial&quot;" stroke="none" fill="#000000" style="-webkit-tap-highlight-color: rgba(0, 0, 0, 0); text-anchor: start; font: 15px Arial;" id="opt" class="flowchartt" font-size="15px" transform="matrix(1,0,0,1,34.4297,94.6567)" stroke-width="1"><tspan dy="5.171630859375" style="-webkit-tap-highlight-color: rgba(0, 0, 0, 0);">Call Second Activity</tspan></text><rect x="0" y="0" width="177.546875" height="36.65673828125" r="20" rx="20" ry="20" fill="#ffffff" stroke="#000000" style="-webkit-tap-highlight-color: rgba(0, 0, 0, 0);" stroke-width="2" class="flowchart" id="state1" transform="matrix(1,0,0,1,21.5195,185.3135)"></rect><text x="10" y="18.328369140625" text-anchor="start" font="10px &quot;Arial&quot;" stroke="none" fill="#000000" style="-webkit-tap-highlight-color: rgba(0, 0, 0, 0); text-anchor: start; font: 15px Arial;" id="state1t" class="flowchartt" font-size="15px" transform="matrix(1,0,0,1,21.5195,185.3135)" stroke-width="1"><tspan dy="5.171630859375" style="-webkit-tap-highlight-color: rgba(0, 0, 0, 0);">First Activity: onPause()</tspan></text><rect x="0" y="0" width="201.7578125" height="36.65673828125" r="20" rx="20" ry="20" fill="#ffffff" stroke="#000000" style="-webkit-tap-highlight-color: rgba(0, 0, 0, 0);" stroke-width="2" class="flowchart" id="state2" transform="matrix(1,0,0,1,9.4141,275.9702)"></rect><text x="10" y="18.328369140625" text-anchor="start" font="10px &quot;Arial&quot;" stroke="none" fill="#000000" style="-webkit-tap-highlight-color: rgba(0, 0, 0, 0); text-anchor: start; font: 15px Arial;" id="state2t" class="flowchartt" font-size="15px" transform="matrix(1,0,0,1,9.4141,275.9702)" stroke-width="1"><tspan dy="5.171630859375" style="-webkit-tap-highlight-color: rgba(0, 0, 0, 0);">Second Activity: onCreate()</tspan></text><rect x="0" y="0" width="188.40625" height="36.65673828125" r="20" rx="20" ry="20" fill="#ffffff" stroke="#000000" style="-webkit-tap-highlight-color: rgba(0, 0, 0, 0);" stroke-width="2" class="flowchart" id="state3" transform="matrix(1,0,0,1,16.0898,366.627)"></rect><text x="10" y="18.328369140625" text-anchor="start" font="10px &quot;Arial&quot;" stroke="none" fill="#000000" style="-webkit-tap-highlight-color: rgba(0, 0, 0, 0); text-anchor: start; font: 15px Arial;" id="state3t" class="flowchartt" font-size="15px" transform="matrix(1,0,0,1,16.0898,366.627)" stroke-width="1"><tspan dy="5.171630859375" style="-webkit-tap-highlight-color: rgba(0, 0, 0, 0);">Second Activity: onStart()</tspan></text><rect x="0" y="0" width="212.5859375" height="36.65673828125" r="20" rx="20" ry="20" fill="#ffffff" stroke="#000000" style="-webkit-tap-highlight-color: rgba(0, 0, 0, 0);" stroke-width="2" class="flowchart" id="state4" transform="matrix(1,0,0,1,4,457.2837)"></rect><text x="10" y="18.328369140625" text-anchor="start" font="10px &quot;Arial&quot;" stroke="none" fill="#000000" style="-webkit-tap-highlight-color: rgba(0, 0, 0, 0); text-anchor: start; font: 15px Arial;" id="state4t" class="flowchartt" font-size="15px" transform="matrix(1,0,0,1,4,457.2837)" stroke-width="1"><tspan dy="5.171630859375" style="-webkit-tap-highlight-color: rgba(0, 0, 0, 0);">Second Activity: onResume()</tspan></text><rect x="0" y="0" width="165.875" height="36.65673828125" r="20" rx="20" ry="20" fill="#ffffff" stroke="#000000" style="-webkit-tap-highlight-color: rgba(0, 0, 0, 0);" stroke-width="2" class="flowchart" id="state5" transform="matrix(1,0,0,1,27.3555,547.9404)"></rect><text x="10" y="18.328369140625" text-anchor="start" font="10px &quot;Arial&quot;" stroke="none" fill="#000000" style="-webkit-tap-highlight-color: rgba(0, 0, 0, 0); text-anchor: start; font: 15px Arial;" id="state5t" class="flowchartt" font-size="15px" transform="matrix(1,0,0,1,27.3555,547.9404)" stroke-width="1"><tspan dy="5.171630859375" style="-webkit-tap-highlight-color: rgba(0, 0, 0, 0);">First Activity: onStop()</tspan><tspan dy="18" x="10" style="-webkit-tap-highlight-color: rgba(0, 0, 0, 0);"></tspan></text><path fill="none" stroke="#000000" d="M110.29296875,40.65673828125C110.29296875,40.65673828125,110.29296875,80.31083822250366,110.29296875,91.65717736585066" stroke-width="2" marker-end="url(#raphael-marker-endblock33-obj152)" style="-webkit-tap-highlight-color: rgba(0, 0, 0, 0);"></path><path fill="none" stroke="#000000" d="M110.29296875,131.3134765625C110.29296875,131.3134765625,110.29296875,170.96757650375366,110.29296875,182.31391564710066" stroke-width="2" marker-end="url(#raphael-marker-endblock33-obj152)" style="-webkit-tap-highlight-color: rgba(0, 0, 0, 0);"></path><path fill="none" stroke="#000000" d="M110.29296875,221.97021484375C110.29296875,221.97021484375,110.29296875,261.62431478500366,110.29296875,272.97065392835066" stroke-width="2" marker-end="url(#raphael-marker-endblock33-obj152)" style="-webkit-tap-highlight-color: rgba(0, 0, 0, 0);"></path><path fill="none" stroke="#000000" d="M110.29296875,312.626953125C110.29296875,312.626953125,110.29296875,352.28105306625366,110.29296875,363.62739220960066" stroke-width="2" marker-end="url(#raphael-marker-endblock33-obj152)" style="-webkit-tap-highlight-color: rgba(0, 0, 0, 0);"></path><path fill="none" stroke="#000000" d="M110.29296875,403.28369140625C110.29296875,403.28369140625,110.29296875,442.93779134750366,110.29296875,454.28413049085066" stroke-width="2" marker-end="url(#raphael-marker-endblock33-obj152)" style="-webkit-tap-highlight-color: rgba(0, 0, 0, 0);"></path><path fill="none" stroke="#000000" d="M110.29296875,493.9404296875C110.29296875,493.9404296875,110.29296875,533.5945296287537,110.29296875,544.9408687721007" stroke-width="2" marker-end="url(#raphael-marker-endblock33-obj152)" style="-webkit-tap-highlight-color: rgba(0, 0, 0, 0);"></path></svg>