<?xml version="1.0" encoding="utf-8" standalone="no"?><!DOCTYPE svg PUBLIC "-//W3C//DTD SVG 20010904//EN" "http://www.w3.org/TR/2001/REC-SVG-20010904/DTD/svg10.dtd"><svg xmlns="http://www.w3.org/2000/svg" width="196" height="858" xmlns:xlink="http://www.w3.org/1999/xlink"><source><![CDATA[Created with Raphaël 2.1.2Activity ResumedonPause()onSaveInstanceState()onStop()onDestroy()onCreate()onStart()onRestoreInstanceState()onResume()Activity Resumed]]></source><desc style="-webkit-tap-highlight-color: rgba(0, 0, 0, 0);">Created with Raphaël 2.1.2</desc><defs style="-webkit-tap-highlight-color: rgba(0, 0, 0, 0);"><path stroke-linecap="round" d="M5,0 0,2.5 5,5z" id="raphael-marker-block-obj195" style="-webkit-tap-highlight-color: rgba(0, 0, 0, 0);"></path><marker id="raphael-marker-endblock33-obj196" markerHeight="3" markerWidth="3" orient="auto" refX="1.5" refY="1.5" style="-webkit-tap-highlight-color: rgba(0, 0, 0, 0);"><use xlink:href="#raphael-marker-block-obj195" transform="rotate(180 1.5 1.5) scale(0.6,0.6)" stroke-width="1.6667" fill="black" stroke="none" style="-webkit-tap-highlight-color: rgba(0, 0, 0, 0);"></use></marker></defs><rect x="0" y="0" width="135.90625" height="36.671875" r="20" rx="20" ry="20" fill="#ffffff" stroke="#000000" style="-webkit-tap-highlight-color: rgba(0, 0, 0, 0);" stroke-width="2" class="flowchart" id="st" transform="matrix(1,0,0,1,31.5156,4)"></rect><text x="10" y="18.3359375" text-anchor="start" font="10px &quot;Arial&quot;" stroke="none" fill="#000000" style="-webkit-tap-highlight-color: rgba(0, 0, 0, 0); text-anchor: start; font: 15px Arial;" id="stt" class="flowchartt" font-size="15px" transform="matrix(1,0,0,1,31.5156,4)" stroke-width="1"><tspan style="-webkit-tap-highlight-color: rgba(0, 0, 0, 0);" dy="5.171875">Activity Resumed</tspan></text><rect x="0" y="0" width="89.21875" height="36.671875" r="0" rx="0" ry="0" fill="#ffffff" stroke="#000000" style="-webkit-tap-highlight-color: rgba(0, 0, 0, 0);" stroke-width="2" class="flowchart" id="op1" transform="matrix(1,0,0,1,54.8594,94.6719)"></rect><text x="10" y="18.3359375" text-anchor="start" font="10px &quot;Arial&quot;" stroke="none" fill="#000000" style="-webkit-tap-highlight-color: rgba(0, 0, 0, 0); text-anchor: start; font: 15px Arial;" id="op1t" class="flowchartt" font-size="15px" transform="matrix(1,0,0,1,54.8594,94.6719)" stroke-width="1"><tspan style="-webkit-tap-highlight-color: rgba(0, 0, 0, 0);" dy="5.171875">onPause()</tspan></text><rect x="0" y="0" width="172.59375" height="36.671875" r="0" rx="0" ry="0" fill="#ffffff" stroke="#000000" style="-webkit-tap-highlight-color: rgba(0, 0, 0, 0);" stroke-width="2" class="flowchart" id="op3" transform="matrix(1,0,0,1,13.1719,185.3438)"></rect><text x="10" y="18.3359375" text-anchor="start" font="10px &quot;Arial&quot;" stroke="none" fill="#000000" style="-webkit-tap-highlight-color: rgba(0, 0, 0, 0); text-anchor: start; font: 15px Arial;" id="op3t" class="flowchartt" font-size="15px" transform="matrix(1,0,0,1,13.1719,185.3438)" stroke-width="1"><tspan style="-webkit-tap-highlight-color: rgba(0, 0, 0, 0);" dy="5.171875">onSaveInstanceState()</tspan></text><rect x="0" y="0" width="77.546875" height="36.671875" r="0" rx="0" ry="0" fill="#ffffff" stroke="#000000" style="-webkit-tap-highlight-color: rgba(0, 0, 0, 0);" stroke-width="2" class="flowchart" id="op2" transform="matrix(1,0,0,1,60.6953,276.0156)"></rect><text x="10" y="18.3359375" text-anchor="start" font="10px &quot;Arial&quot;" stroke="none" fill="#000000" style="-webkit-tap-highlight-color: rgba(0, 0, 0, 0); text-anchor: start; font: 15px Arial;" id="op2t" class="flowchartt" font-size="15px" transform="matrix(1,0,0,1,60.6953,276.0156)" stroke-width="1"><tspan style="-webkit-tap-highlight-color: rgba(0, 0, 0, 0);" dy="5.171875">onStop()</tspan></text><rect x="0" y="0" width="98.359375" height="36.671875" r="0" rx="0" ry="0" fill="#ffffff" stroke="#000000" style="-webkit-tap-highlight-color: rgba(0, 0, 0, 0);" stroke-width="2" class="flowchart" id="op4" transform="matrix(1,0,0,1,50.2891,366.6875)"></rect><text x="10" y="18.3359375" text-anchor="start" font="10px &quot;Arial&quot;" stroke="none" fill="#000000" style="-webkit-tap-highlight-color: rgba(0, 0, 0, 0); text-anchor: start; font: 15px Arial;" id="op4t" class="flowchartt" font-size="15px" transform="matrix(1,0,0,1,50.2891,366.6875)" stroke-width="1"><tspan style="-webkit-tap-highlight-color: rgba(0, 0, 0, 0);" dy="5.171875">onDestroy()</tspan></text><rect x="0" y="0" width="91.703125" height="36.671875" r="0" rx="0" ry="0" fill="#ffffff" stroke="#000000" style="-webkit-tap-highlight-color: rgba(0, 0, 0, 0);" stroke-width="2" class="flowchart" id="op5" transform="matrix(1,0,0,1,53.6172,457.3594)"></rect><text x="10" y="18.3359375" text-anchor="start" font="10px &quot;Arial&quot;" stroke="none" fill="#000000" style="-webkit-tap-highlight-color: rgba(0, 0, 0, 0); text-anchor: start; font: 15px Arial;" id="op5t" class="flowchartt" font-size="15px" transform="matrix(1,0,0,1,53.6172,457.3594)" stroke-width="1"><tspan style="-webkit-tap-highlight-color: rgba(0, 0, 0, 0);" dy="5.171875">onCreate()</tspan></text><rect x="0" y="0" width="78.359375" height="36.671875" r="0" rx="0" ry="0" fill="#ffffff" stroke="#000000" style="-webkit-tap-highlight-color: rgba(0, 0, 0, 0);" stroke-width="2" class="flowchart" id="op6" transform="matrix(1,0,0,1,60.2891,548.0313)"></rect><text x="10" y="18.3359375" text-anchor="start" font="10px &quot;Arial&quot;" stroke="none" fill="#000000" style="-webkit-tap-highlight-color: rgba(0, 0, 0, 0); text-anchor: start; font: 15px Arial;" id="op6t" class="flowchartt" font-size="15px" transform="matrix(1,0,0,1,60.2891,548.0313)" stroke-width="1"><tspan style="-webkit-tap-highlight-color: rgba(0, 0, 0, 0);" dy="5.171875">onStart()</tspan></text><rect x="0" y="0" width="190.9375" height="36.671875" r="0" rx="0" ry="0" fill="#ffffff" stroke="#000000" style="-webkit-tap-highlight-color: rgba(0, 0, 0, 0);" stroke-width="2" class="flowchart" id="op7" transform="matrix(1,0,0,1,4,638.7031)"></rect><text x="10" y="18.3359375" text-anchor="start" font="10px &quot;Arial&quot;" stroke="none" fill="#000000" style="-webkit-tap-highlight-color: rgba(0, 0, 0, 0); text-anchor: start; font: 15px Arial;" id="op7t" class="flowchartt" font-size="15px" transform="matrix(1,0,0,1,4,638.7031)" stroke-width="1"><tspan style="-webkit-tap-highlight-color: rgba(0, 0, 0, 0);" dy="5.171875">onRestoreInstanceState()</tspan></text><rect x="0" y="0" width="102.53125" height="36.671875" r="0" rx="0" ry="0" fill="#ffffff" stroke="#000000" style="-webkit-tap-highlight-color: rgba(0, 0, 0, 0);" stroke-width="2" class="flowchart" id="op8" transform="matrix(1,0,0,1,48.2031,729.375)"></rect><text x="10" y="18.3359375" text-anchor="start" font="10px &quot;Arial&quot;" stroke="none" fill="#000000" style="-webkit-tap-highlight-color: rgba(0, 0, 0, 0); text-anchor: start; font: 15px Arial;" id="op8t" class="flowchartt" font-size="15px" transform="matrix(1,0,0,1,48.2031,729.375)" stroke-width="1"><tspan style="-webkit-tap-highlight-color: rgba(0, 0, 0, 0);" dy="5.171875">onResume()</tspan><tspan dy="18" x="10" style="-webkit-tap-highlight-color: rgba(0, 0, 0, 0);"></tspan></text><rect x="0" y="0" width="135.90625" height="36.671875" r="20" rx="20" ry="20" fill="#ffffff" stroke="#000000" style="-webkit-tap-highlight-color: rgba(0, 0, 0, 0);" stroke-width="2" class="flowchart" id="end" transform="matrix(1,0,0,1,31.5156,820.0469)"></rect><text x="10" y="18.3359375" text-anchor="start" font="10px &quot;Arial&quot;" stroke="none" fill="#000000" style="-webkit-tap-highlight-color: rgba(0, 0, 0, 0); text-anchor: start; font: 15px Arial;" id="endt" class="flowchartt" font-size="15px" transform="matrix(1,0,0,1,31.5156,820.0469)" stroke-width="1"><tspan style="-webkit-tap-highlight-color: rgba(0, 0, 0, 0);" dy="5.171875">Activity Resumed</tspan><tspan dy="18" x="10" style="-webkit-tap-highlight-color: rgba(0, 0, 0, 0);"></tspan></text><path fill="none" stroke="#000000" d="M99.46875,40.671875C99.46875,40.671875,99.46875,80.32597494125366,99.46875,91.67231408460066" stroke-width="2" marker-end="url(#raphael-marker-endblock33-obj196)" style="-webkit-tap-highlight-color: rgba(0, 0, 0, 0);"></path><path fill="none" stroke="#000000" d="M99.46875,131.34375C99.46875,131.34375,99.46875,170.99784994125366,99.46875,182.34418908460066" stroke-width="2" marker-end="url(#raphael-marker-endblock33-obj196)" style="-webkit-tap-highlight-color: rgba(0, 0, 0, 0);"></path><path fill="none" stroke="#000000" d="M99.46875,222.015625C99.46875,222.015625,99.46875,261.66972494125366,99.46875,273.01606408460066" stroke-width="2" marker-end="url(#raphael-marker-endblock33-obj196)" style="-webkit-tap-highlight-color: rgba(0, 0, 0, 0);"></path><path fill="none" stroke="#000000" d="M99.46875,312.6875C99.46875,312.6875,99.46875,352.34159994125366,99.46875,363.68793908460066" stroke-width="2" marker-end="url(#raphael-marker-endblock33-obj196)" style="-webkit-tap-highlight-color: rgba(0, 0, 0, 0);"></path><path fill="none" stroke="#000000" d="M99.46875,403.359375C99.46875,403.359375,99.46875,443.01347494125366,99.46875,454.35981408460066" stroke-width="2" marker-end="url(#raphael-marker-endblock33-obj196)" style="-webkit-tap-highlight-color: rgba(0, 0, 0, 0);"></path><path fill="none" stroke="#000000" d="M99.46875,494.03125C99.46875,494.03125,99.46875,533.6853499412537,99.46875,545.0316890846007" stroke-width="2" marker-end="url(#raphael-marker-endblock33-obj196)" style="-webkit-tap-highlight-color: rgba(0, 0, 0, 0);"></path><path fill="none" stroke="#000000" d="M99.46875,584.703125C99.46875,584.703125,99.46875,624.3572249412537,99.46875,635.7035640846007" stroke-width="2" marker-end="url(#raphael-marker-endblock33-obj196)" style="-webkit-tap-highlight-color: rgba(0, 0, 0, 0);"></path><path fill="none" stroke="#000000" d="M99.46875,675.375C99.46875,675.375,99.46875,715.0290999412537,99.46875,726.3754390846007" stroke-width="2" marker-end="url(#raphael-marker-endblock33-obj196)" style="-webkit-tap-highlight-color: rgba(0, 0, 0, 0);"></path><path fill="none" stroke="#000000" d="M99.46875,766.046875C99.46875,766.046875,99.46875,805.7009749412537,99.46875,817.0473140846007" stroke-width="2" marker-end="url(#raphael-marker-endblock33-obj196)" style="-webkit-tap-highlight-color: rgba(0, 0, 0, 0);"></path></svg>