<?xml version="1.0" encoding="utf-8" standalone="no"?><!DOCTYPE svg PUBLIC "-//W3C//DTD SVG 20010904//EN" "http://www.w3.org/TR/2001/REC-SVG-20010904/DTD/svg10.dtd"><svg xmlns="http://www.w3.org/2000/svg" width="141" height="314" xmlns:xlink="http://www.w3.org/1999/xlink"><source><![CDATA[Created with Raphaël 2.1.2Activity ResumedonPause()onStop()Activity Stopped]]></source><desc style="-webkit-tap-highlight-color: rgba(0, 0, 0, 0);">Created with Raphaël 2.1.2</desc><defs style="-webkit-tap-highlight-color: rgba(0, 0, 0, 0);"><path stroke-linecap="round" d="M5,0 0,2.5 5,5z" id="raphael-marker-block-obj65" style="-webkit-tap-highlight-color: rgba(0, 0, 0, 0);"></path><marker id="raphael-marker-endblock33-obj66" markerHeight="3" markerWidth="3" orient="auto" refX="1.5" refY="1.5" style="-webkit-tap-highlight-color: rgba(0, 0, 0, 0);"><use xlink:href="#raphael-marker-block-obj65" transform="rotate(180 1.5 1.5) scale(0.6,0.6)" stroke-width="1.6667" fill="black" stroke="none" style="-webkit-tap-highlight-color: rgba(0, 0, 0, 0);"></use></marker></defs><rect x="0" y="0" width="135.90625" height="36.671875" r="20" rx="20" ry="20" fill="#ffffff" stroke="#000000" style="-webkit-tap-highlight-color: rgba(0, 0, 0, 0);" stroke-width="2" class="flowchart" id="st" transform="matrix(1,0,0,1,4,4)"></rect><text x="10" y="18.3359375" text-anchor="start" font="10px &quot;Arial&quot;" stroke="none" fill="#000000" style="-webkit-tap-highlight-color: rgba(0, 0, 0, 0); text-anchor: start; font: 15px Arial;" id="stt" class="flowchartt" font-size="15px" transform="matrix(1,0,0,1,4,4)" stroke-width="1"><tspan style="-webkit-tap-highlight-color: rgba(0, 0, 0, 0);" dy="5.171875">Activity Resumed</tspan></text><rect x="0" y="0" width="89.21875" height="36.671875" r="0" rx="0" ry="0" fill="#ffffff" stroke="#000000" style="-webkit-tap-highlight-color: rgba(0, 0, 0, 0);" stroke-width="2" class="flowchart" id="op1" transform="matrix(1,0,0,1,27.3438,94.6719)"></rect><text x="10" y="18.3359375" text-anchor="start" font="10px &quot;Arial&quot;" stroke="none" fill="#000000" style="-webkit-tap-highlight-color: rgba(0, 0, 0, 0); text-anchor: start; font: 15px Arial;" id="op1t" class="flowchartt" font-size="15px" transform="matrix(1,0,0,1,27.3438,94.6719)" stroke-width="1"><tspan style="-webkit-tap-highlight-color: rgba(0, 0, 0, 0);" dy="5.171875">onPause()</tspan></text><rect x="0" y="0" width="77.546875" height="36.671875" r="0" rx="0" ry="0" fill="#ffffff" stroke="#000000" style="-webkit-tap-highlight-color: rgba(0, 0, 0, 0);" stroke-width="2" class="flowchart" id="op5" transform="matrix(1,0,0,1,33.1797,185.3438)"></rect><text x="10" y="18.3359375" text-anchor="start" font="10px &quot;Arial&quot;" stroke="none" fill="#000000" style="-webkit-tap-highlight-color: rgba(0, 0, 0, 0); text-anchor: start; font: 15px Arial;" id="op5t" class="flowchartt" font-size="15px" transform="matrix(1,0,0,1,33.1797,185.3438)" stroke-width="1"><tspan style="-webkit-tap-highlight-color: rgba(0, 0, 0, 0);" dy="5.171875">onStop()</tspan></text><rect x="0" y="0" width="127.59375" height="36.671875" r="20" rx="20" ry="20" fill="#ffffff" stroke="#000000" style="-webkit-tap-highlight-color: rgba(0, 0, 0, 0);" stroke-width="2" class="flowchart" id="end" transform="matrix(1,0,0,1,8.1563,276.0156)"></rect><text x="10" y="18.3359375" text-anchor="start" font="10px &quot;Arial&quot;" stroke="none" fill="#000000" style="-webkit-tap-highlight-color: rgba(0, 0, 0, 0); text-anchor: start; font: 15px Arial;" id="endt" class="flowchartt" font-size="15px" transform="matrix(1,0,0,1,8.1563,276.0156)" stroke-width="1"><tspan style="-webkit-tap-highlight-color: rgba(0, 0, 0, 0);" dy="5.171875">Activity Stopped</tspan><tspan dy="18" x="10" style="-webkit-tap-highlight-color: rgba(0, 0, 0, 0);"></tspan></text><path fill="none" stroke="#000000" d="M71.953125,40.671875C71.953125,40.671875,71.953125,80.32597494125366,71.953125,91.67231408460066" stroke-width="2" marker-end="url(#raphael-marker-endblock33-obj66)" style="-webkit-tap-highlight-color: rgba(0, 0, 0, 0);"></path><path fill="none" stroke="#000000" d="M71.953125,131.34375C71.953125,131.34375,71.953125,170.99784994125366,71.953125,182.34418908460066" stroke-width="2" marker-end="url(#raphael-marker-endblock33-obj66)" style="-webkit-tap-highlight-color: rgba(0, 0, 0, 0);"></path><path fill="none" stroke="#000000" d="M71.953125,222.015625C71.953125,222.015625,71.953125,261.66972494125366,71.953125,273.01606408460066" stroke-width="2" marker-end="url(#raphael-marker-endblock33-obj66)" style="-webkit-tap-highlight-color: rgba(0, 0, 0, 0);"></path></svg>