<?xml version="1.0" encoding="utf-8" standalone="no"?><!DOCTYPE svg PUBLIC "-//W3C//DTD SVG 20010904//EN" "http://www.w3.org/TR/2001/REC-SVG-20010904/DTD/svg10.dtd"><svg xmlns="http://www.w3.org/2000/svg" width="236" height="495" xmlns:xlink="http://www.w3.org/1999/xlink"><source><![CDATA[Created with Raphaël 2.1.2Activity stopped by Split ScreenCall to ForegroundActivity: onDestroy()Activity: onCreate()Activity: onStart()Activity: onResume()]]></source><desc style="-webkit-tap-highlight-color: rgba(0, 0, 0, 0);">Created with Raphaël 2.1.2</desc><defs style="-webkit-tap-highlight-color: rgba(0, 0, 0, 0);"><path stroke-linecap="round" d="M5,0 0,2.5 5,5z" id="raphael-marker-block-obj95" style="-webkit-tap-highlight-color: rgba(0, 0, 0, 0);"></path><marker id="raphael-marker-endblock33-obj96" markerHeight="3" markerWidth="3" orient="auto" refX="1.5" refY="1.5" style="-webkit-tap-highlight-color: rgba(0, 0, 0, 0);"><use xlink:href="#raphael-marker-block-obj95" transform="rotate(180 1.5 1.5) scale(0.6,0.6)" stroke-width="1.6667" fill="black" stroke="none" style="-webkit-tap-highlight-color: rgba(0, 0, 0, 0);"></use></marker></defs><rect x="0" y="0" width="230.13134765625" height="36.65673828125" r="20" rx="20" ry="20" fill="#ffffff" stroke="#000000" style="-webkit-tap-highlight-color: rgba(0, 0, 0, 0);" stroke-width="2" class="flowchart" id="st" transform="matrix(1,0,0,1,4,4)"></rect><text x="10" y="18.328369140625" text-anchor="start" font="10px &quot;Arial&quot;" stroke="none" fill="#000000" style="-webkit-tap-highlight-color: rgba(0, 0, 0, 0); text-anchor: start; font: 15px Arial;" id="stt" class="flowchartt" font-size="15px" transform="matrix(1,0,0,1,4,4)" stroke-width="1"><tspan dy="5.171630859375" style="-webkit-tap-highlight-color: rgba(0, 0, 0, 0);">Activity stopped by Split Screen</tspan></text><rect x="0" y="0" width="144.234375" height="36.65673828125" r="0" rx="0" ry="0" fill="#ffffff" stroke="#000000" style="-webkit-tap-highlight-color: rgba(0, 0, 0, 0);" stroke-width="2" class="flowchart" id="op" transform="matrix(1,0,0,1,46.9485,94.6567)"></rect><text x="10" y="18.328369140625" text-anchor="start" font="10px &quot;Arial&quot;" stroke="none" fill="#000000" style="-webkit-tap-highlight-color: rgba(0, 0, 0, 0); text-anchor: start; font: 15px Arial;" id="opt" class="flowchartt" font-size="15px" transform="matrix(1,0,0,1,46.9485,94.6567)" stroke-width="1"><tspan dy="5.171630859375" style="-webkit-tap-highlight-color: rgba(0, 0, 0, 0);">Call to Foreground</tspan></text><rect x="0" y="0" width="154.21728515625" height="36.65673828125" r="20" rx="20" ry="20" fill="#ffffff" stroke="#000000" style="-webkit-tap-highlight-color: rgba(0, 0, 0, 0);" stroke-width="2" class="flowchart" id="st0" transform="matrix(1,0,0,1,41.957,185.3135)"></rect><text x="10" y="18.328369140625" text-anchor="start" font="10px &quot;Arial&quot;" stroke="none" fill="#000000" style="-webkit-tap-highlight-color: rgba(0, 0, 0, 0); text-anchor: start; font: 15px Arial;" id="st0t" class="flowchartt" font-size="15px" transform="matrix(1,0,0,1,41.957,185.3135)" stroke-width="1"><tspan dy="5.171630859375" style="-webkit-tap-highlight-color: rgba(0, 0, 0, 0);">Activity: onDestroy()</tspan></text><rect x="0" y="0" width="147.56103515625" height="36.65673828125" r="20" rx="20" ry="20" fill="#ffffff" stroke="#000000" style="-webkit-tap-highlight-color: rgba(0, 0, 0, 0);" stroke-width="2" class="flowchart" id="st1" transform="matrix(1,0,0,1,45.2852,275.9702)"></rect><text x="10" y="18.328369140625" text-anchor="start" font="10px &quot;Arial&quot;" stroke="none" fill="#000000" style="-webkit-tap-highlight-color: rgba(0, 0, 0, 0); text-anchor: start; font: 15px Arial;" id="st1t" class="flowchartt" font-size="15px" transform="matrix(1,0,0,1,45.2852,275.9702)" stroke-width="1"><tspan dy="5.171630859375" style="-webkit-tap-highlight-color: rgba(0, 0, 0, 0);">Activity: onCreate()</tspan></text><rect x="0" y="0" width="134.21728515625" height="36.65673828125" r="20" rx="20" ry="20" fill="#ffffff" stroke="#000000" style="-webkit-tap-highlight-color: rgba(0, 0, 0, 0);" stroke-width="2" class="flowchart" id="st2" transform="matrix(1,0,0,1,51.957,366.627)"></rect><text x="10" y="18.328369140625" text-anchor="start" font="10px &quot;Arial&quot;" stroke="none" fill="#000000" style="-webkit-tap-highlight-color: rgba(0, 0, 0, 0); text-anchor: start; font: 15px Arial;" id="st2t" class="flowchartt" font-size="15px" transform="matrix(1,0,0,1,51.957,366.627)" stroke-width="1"><tspan dy="5.171630859375" style="-webkit-tap-highlight-color: rgba(0, 0, 0, 0);">Activity: onStart()</tspan></text><rect x="0" y="0" width="158.39697265625" height="36.65673828125" r="20" rx="20" ry="20" fill="#ffffff" stroke="#000000" style="-webkit-tap-highlight-color: rgba(0, 0, 0, 0);" stroke-width="2" class="flowchart" id="st3" transform="matrix(1,0,0,1,39.8672,457.2837)"></rect><text x="10" y="18.328369140625" text-anchor="start" font="10px &quot;Arial&quot;" stroke="none" fill="#000000" style="-webkit-tap-highlight-color: rgba(0, 0, 0, 0); text-anchor: start; font: 15px Arial;" id="st3t" class="flowchartt" font-size="15px" transform="matrix(1,0,0,1,39.8672,457.2837)" stroke-width="1"><tspan dy="5.171630859375" style="-webkit-tap-highlight-color: rgba(0, 0, 0, 0);">Activity: onResume()</tspan><tspan dy="18" x="10" style="-webkit-tap-highlight-color: rgba(0, 0, 0, 0);"></tspan></text><path fill="none" stroke="#000000" d="M119.065673828125,40.65673828125C119.065673828125,40.65673828125,119.065673828125,80.31083822250366,119.065673828125,91.65717736585066" stroke-width="2" marker-end="url(#raphael-marker-endblock33-obj96)" style="-webkit-tap-highlight-color: rgba(0, 0, 0, 0);"></path><path fill="none" stroke="#000000" d="M119.065673828125,131.3134765625C119.065673828125,131.3134765625,119.065673828125,170.96757650375366,119.065673828125,182.31391564710066" stroke-width="2" marker-end="url(#raphael-marker-endblock33-obj96)" style="-webkit-tap-highlight-color: rgba(0, 0, 0, 0);"></path><path fill="none" stroke="#000000" d="M119.065673828125,221.97021484375C119.065673828125,221.97021484375,119.065673828125,261.62431478500366,119.065673828125,272.97065392835066" stroke-width="2" marker-end="url(#raphael-marker-endblock33-obj96)" style="-webkit-tap-highlight-color: rgba(0, 0, 0, 0);"></path><path fill="none" stroke="#000000" d="M119.065673828125,312.626953125C119.065673828125,312.626953125,119.065673828125,352.28105306625366,119.065673828125,363.62739220960066" stroke-width="2" marker-end="url(#raphael-marker-endblock33-obj96)" style="-webkit-tap-highlight-color: rgba(0, 0, 0, 0);"></path><path fill="none" stroke="#000000" d="M119.065673828125,403.28369140625C119.065673828125,403.28369140625,119.065673828125,442.93779134750366,119.065673828125,454.28413049085066" stroke-width="2" marker-end="url(#raphael-marker-endblock33-obj96)" style="-webkit-tap-highlight-color: rgba(0, 0, 0, 0);"></path></svg>