<?xml version="1.0" encoding="utf-8" standalone="no"?><!DOCTYPE svg PUBLIC "-//W3C//DTD SVG 20010904//EN" "http://www.w3.org/TR/2001/REC-SVG-20010904/DTD/svg10.dtd"><svg xmlns="http://www.w3.org/2000/svg" width="194" height="636" xmlns:xlink="http://www.w3.org/1999/xlink"><source><![CDATA[Created with Raphaël 2.1.2Activity in Split ScreenResumed?onPause()onSaveInstanceState()onStop()Activity Stoppedyesno]]></source><desc style="-webkit-tap-highlight-color: rgba(0, 0, 0, 0);">Created with Raphaël 2.1.2</desc><defs style="-webkit-tap-highlight-color: rgba(0, 0, 0, 0);"><path stroke-linecap="round" d="M5,0 0,2.5 5,5z" id="raphael-marker-block-obj281" style="-webkit-tap-highlight-color: rgba(0, 0, 0, 0);"></path><marker id="raphael-marker-endblock33-obj282" markerHeight="3" markerWidth="3" orient="auto" refX="1.5" refY="1.5" style="-webkit-tap-highlight-color: rgba(0, 0, 0, 0);"><use xlink:href="#raphael-marker-block-obj281" transform="rotate(180 1.5 1.5) scale(0.6,0.6)" stroke-width="1.6667" fill="black" stroke="none" style="-webkit-tap-highlight-color: rgba(0, 0, 0, 0);"></use></marker></defs><rect x="0" y="0" width="168.421875" height="36.671875" r="20" rx="20" ry="20" fill="#ffffff" stroke="#000000" style="-webkit-tap-highlight-color: rgba(0, 0, 0, 0);" stroke-width="2" class="flowchart" id="st" transform="matrix(1,0,0,1,6.0859,24.1191)"></rect><text x="10" y="18.3359375" text-anchor="start" font="10px &quot;Arial&quot;" stroke="none" fill="#000000" style="-webkit-tap-highlight-color: rgba(0, 0, 0, 0); text-anchor: start; font: 15px Arial;" id="stt" class="flowchartt" font-size="15px" transform="matrix(1,0,0,1,6.0859,24.1191)" stroke-width="1"><tspan style="-webkit-tap-highlight-color: rgba(0, 0, 0, 0);" dy="5.171875">Activity in Split Screen</tspan></text><path fill="#ffffff" stroke="#000000" d="M38.455078125,19.2275390625L0,38.455078125L76.91015625,76.91015625L153.8203125,38.455078125L76.91015625,0L0,38.455078125" stroke-width="2" id="cond" class="flowchart" style="-webkit-tap-highlight-color: rgba(0, 0, 0, 0);" transform="matrix(1,0,0,1,13.3867,114.791)"></path><text x="43.455078125" y="38.455078125" text-anchor="start" font="10px &quot;Arial&quot;" stroke="none" fill="#000000" style="-webkit-tap-highlight-color: rgba(0, 0, 0, 0); text-anchor: start; font: 15px Arial;" id="condt" class="flowchartt" font-size="15px" transform="matrix(1,0,0,1,13.3867,114.791)" stroke-width="1"><tspan style="-webkit-tap-highlight-color: rgba(0, 0, 0, 0);" dy="5.244140625">Resumed?</tspan></text><rect x="0" y="0" width="89.21875" height="36.671875" r="0" rx="0" ry="0" fill="#ffffff" stroke="#000000" style="-webkit-tap-highlight-color: rgba(0, 0, 0, 0);" stroke-width="2" class="flowchart" id="op1" transform="matrix(1,0,0,1,45.6875,265.8203)"></rect><text x="10" y="18.3359375" text-anchor="start" font="10px &quot;Arial&quot;" stroke="none" fill="#000000" style="-webkit-tap-highlight-color: rgba(0, 0, 0, 0); text-anchor: start; font: 15px Arial;" id="op1t" class="flowchartt" font-size="15px" transform="matrix(1,0,0,1,45.6875,265.8203)" stroke-width="1"><tspan style="-webkit-tap-highlight-color: rgba(0, 0, 0, 0);" dy="5.171875">onPause()</tspan></text><rect x="0" y="0" width="172.59375" height="36.671875" r="0" rx="0" ry="0" fill="#ffffff" stroke="#000000" style="-webkit-tap-highlight-color: rgba(0, 0, 0, 0);" stroke-width="2" class="flowchart" id="op2" transform="matrix(1,0,0,1,4,376.6113)"></rect><text x="10" y="18.3359375" text-anchor="start" font="10px &quot;Arial&quot;" stroke="none" fill="#000000" style="-webkit-tap-highlight-color: rgba(0, 0, 0, 0); text-anchor: start; font: 15px Arial;" id="op2t" class="flowchartt" font-size="15px" transform="matrix(1,0,0,1,4,376.6113)" stroke-width="1"><tspan style="-webkit-tap-highlight-color: rgba(0, 0, 0, 0);" dy="5.171875">onSaveInstanceState()</tspan></text><rect x="0" y="0" width="77.546875" height="36.671875" r="0" rx="0" ry="0" fill="#ffffff" stroke="#000000" style="-webkit-tap-highlight-color: rgba(0, 0, 0, 0);" stroke-width="2" class="flowchart" id="op3" transform="matrix(1,0,0,1,51.5234,487.4023)"></rect><text x="10" y="18.3359375" text-anchor="start" font="10px &quot;Arial&quot;" stroke="none" fill="#000000" style="-webkit-tap-highlight-color: rgba(0, 0, 0, 0); text-anchor: start; font: 15px Arial;" id="op3t" class="flowchartt" font-size="15px" transform="matrix(1,0,0,1,51.5234,487.4023)" stroke-width="1"><tspan style="-webkit-tap-highlight-color: rgba(0, 0, 0, 0);" dy="5.171875">onStop()</tspan></text><rect x="0" y="0" width="127.59375" height="36.671875" r="20" rx="20" ry="20" fill="#ffffff" stroke="#000000" style="-webkit-tap-highlight-color: rgba(0, 0, 0, 0);" stroke-width="2" class="flowchart" id="e" transform="matrix(1,0,0,1,26.5,598.1934)"></rect><text x="10" y="18.3359375" text-anchor="start" font="10px &quot;Arial&quot;" stroke="none" fill="#000000" style="-webkit-tap-highlight-color: rgba(0, 0, 0, 0); text-anchor: start; font: 15px Arial;" id="et" class="flowchartt" font-size="15px" transform="matrix(1,0,0,1,26.5,598.1934)" stroke-width="1"><tspan style="-webkit-tap-highlight-color: rgba(0, 0, 0, 0);" dy="5.171875">Activity Stopped</tspan><tspan dy="18" x="10" style="-webkit-tap-highlight-color: rgba(0, 0, 0, 0);"></tspan></text><path fill="none" stroke="#000000" d="M90.296875,60.791015625C90.296875,60.791015625,90.296875,100.44511556625366,90.296875,111.79145470960066" stroke-width="2" marker-end="url(#raphael-marker-endblock33-obj282)" style="-webkit-tap-highlight-color: rgba(0, 0, 0, 0);"></path><path fill="none" stroke="#000000" d="M90.296875,191.701171875C90.296875,191.701171875,90.296875,248.95644369721413,90.296875,262.8229548416566" stroke-width="2" marker-end="url(#raphael-marker-endblock33-obj282)" style="-webkit-tap-highlight-color: rgba(0, 0, 0, 0);"></path><text x="95.296875" y="201.701171875" text-anchor="start" font="10px &quot;Arial&quot;" stroke="none" fill="#000000" style="-webkit-tap-highlight-color: rgba(0, 0, 0, 0); text-anchor: start; font: 15px Arial;" font-size="15px" stroke-width="1"><tspan style="-webkit-tap-highlight-color: rgba(0, 0, 0, 0);" dy="5.177734375">yes</tspan></text><path fill="none" stroke="#000000" d="M167.20703125,153.24609375C167.20703125,153.24609375,192.20703125,153.24609375,192.20703125,153.24609375C192.20703125,153.24609375,192.20703125,351.611328125,192.20703125,351.611328125C192.20703125,351.611328125,90.296875,351.611328125,90.296875,351.611328125C90.296875,351.611328125,90.296875,366.98477268218994,90.296875,373.62057589925826" stroke-width="2" marker-end="url(#raphael-marker-endblock33-obj282)" style="-webkit-tap-highlight-color: rgba(0, 0, 0, 0);"></path><text x="172.20703125" y="143.24609375" text-anchor="start" font="10px &quot;Arial&quot;" stroke="none" fill="#000000" style="-webkit-tap-highlight-color: rgba(0, 0, 0, 0); text-anchor: start; font: 15px Arial;" font-size="15px" stroke-width="1"><tspan style="-webkit-tap-highlight-color: rgba(0, 0, 0, 0);" dy="5.25390625">no</tspan></text><path fill="none" stroke="#000000" d="M90.296875,302.4921875C90.296875,302.4921875,90.296875,359.7474593222141,90.296875,373.6139704666566" stroke-width="2" marker-end="url(#raphael-marker-endblock33-obj282)" style="-webkit-tap-highlight-color: rgba(0, 0, 0, 0);"></path><path fill="none" stroke="#000000" d="M90.296875,413.283203125C90.296875,413.283203125,90.296875,470.5384749472141,90.296875,484.4049860916566" stroke-width="2" marker-end="url(#raphael-marker-endblock33-obj282)" style="-webkit-tap-highlight-color: rgba(0, 0, 0, 0);"></path><path fill="none" stroke="#000000" d="M90.296875,524.07421875C90.296875,524.07421875,90.296875,581.3294905722141,90.296875,595.1960017166566" stroke-width="2" marker-end="url(#raphael-marker-endblock33-obj282)" style="-webkit-tap-highlight-color: rgba(0, 0, 0, 0);"></path></svg>