<?xml version="1.0" encoding="utf-8" standalone="no"?><!DOCTYPE svg PUBLIC "-//W3C//DTD SVG 20010904//EN" "http://www.w3.org/TR/2001/REC-SVG-20010904/DTD/svg10.dtd"><svg xmlns="http://www.w3.org/2000/svg" width="164" height="495" xmlns:xlink="http://www.w3.org/1999/xlink"><source><![CDATA[Created with Raphaël 2.1.2Activity StoppedActive Split ScreenActivity: onDestroy()Activity: onCreate()Activity: onStart()Activity: onResume()]]></source><desc style="-webkit-tap-highlight-color: rgba(0, 0, 0, 0);">Created with Raphaël 2.1.2</desc><defs style="-webkit-tap-highlight-color: rgba(0, 0, 0, 0);"><path stroke-linecap="round" d="M5,0 0,2.5 5,5z" id="raphael-marker-block-obj297" style="-webkit-tap-highlight-color: rgba(0, 0, 0, 0);"></path><marker id="raphael-marker-endblock33-obj298" markerHeight="3" markerWidth="3" orient="auto" refX="1.5" refY="1.5" style="-webkit-tap-highlight-color: rgba(0, 0, 0, 0);"><use xlink:href="#raphael-marker-block-obj297" transform="rotate(180 1.5 1.5) scale(0.6,0.6)" stroke-width="1.6667" fill="black" stroke="none" style="-webkit-tap-highlight-color: rgba(0, 0, 0, 0);"></use></marker></defs><rect x="0" y="0" width="127.58447265625" height="36.65673828125" r="20" rx="20" ry="20" fill="#ffffff" stroke="#000000" style="-webkit-tap-highlight-color: rgba(0, 0, 0, 0);" stroke-width="2" class="flowchart" id="st" transform="matrix(1,0,0,1,19.4063,4)"></rect><text x="10" y="18.328369140625" text-anchor="start" font="10px &quot;Arial&quot;" stroke="none" fill="#000000" style="-webkit-tap-highlight-color: rgba(0, 0, 0, 0); text-anchor: start; font: 15px Arial;" id="stt" class="flowchartt" font-size="15px" transform="matrix(1,0,0,1,19.4063,4)" stroke-width="1"><tspan dy="5.171630859375" style="-webkit-tap-highlight-color: rgba(0, 0, 0, 0);">Activity Stopped</tspan></text><rect x="0" y="0" width="145.91259765625" height="36.5" r="0" rx="0" ry="0" fill="#ffffff" stroke="#000000" style="-webkit-tap-highlight-color: rgba(0, 0, 0, 0);" stroke-width="2" class="flowchart" id="op" transform="matrix(1,0,0,1,10.2422,94.7351)"></rect><text x="10" y="18.25" text-anchor="start" font="10px &quot;Arial&quot;" stroke="none" fill="#000000" style="-webkit-tap-highlight-color: rgba(0, 0, 0, 0); text-anchor: start; font: 15px Arial;" id="opt" class="flowchartt" font-size="15px" transform="matrix(1,0,0,1,10.2422,94.7351)" stroke-width="1"><tspan dy="5.25" style="-webkit-tap-highlight-color: rgba(0, 0, 0, 0);">Active Split Screen</tspan></text><rect x="0" y="0" width="154.21728515625" height="36.65673828125" r="20" rx="20" ry="20" fill="#ffffff" stroke="#000000" style="-webkit-tap-highlight-color: rgba(0, 0, 0, 0);" stroke-width="2" class="flowchart" id="s2" transform="matrix(1,0,0,1,6.0898,185.2351)"></rect><text x="10" y="18.328369140625" text-anchor="start" font="10px &quot;Arial&quot;" stroke="none" fill="#000000" style="-webkit-tap-highlight-color: rgba(0, 0, 0, 0); text-anchor: start; font: 15px Arial;" id="s2t" class="flowchartt" font-size="15px" transform="matrix(1,0,0,1,6.0898,185.2351)" stroke-width="1"><tspan dy="5.171630859375" style="-webkit-tap-highlight-color: rgba(0, 0, 0, 0);">Activity: onDestroy()</tspan></text><rect x="0" y="0" width="147.56103515625" height="36.65673828125" r="20" rx="20" ry="20" fill="#ffffff" stroke="#000000" style="-webkit-tap-highlight-color: rgba(0, 0, 0, 0);" stroke-width="2" class="flowchart" id="s3" transform="matrix(1,0,0,1,9.418,275.8918)"></rect><text x="10" y="18.328369140625" text-anchor="start" font="10px &quot;Arial&quot;" stroke="none" fill="#000000" style="-webkit-tap-highlight-color: rgba(0, 0, 0, 0); text-anchor: start; font: 15px Arial;" id="s3t" class="flowchartt" font-size="15px" transform="matrix(1,0,0,1,9.418,275.8918)" stroke-width="1"><tspan dy="5.171630859375" style="-webkit-tap-highlight-color: rgba(0, 0, 0, 0);">Activity: onCreate()</tspan></text><rect x="0" y="0" width="134.21728515625" height="36.65673828125" r="20" rx="20" ry="20" fill="#ffffff" stroke="#000000" style="-webkit-tap-highlight-color: rgba(0, 0, 0, 0);" stroke-width="2" class="flowchart" id="s4" transform="matrix(1,0,0,1,16.0898,366.5486)"></rect><text x="10" y="18.328369140625" text-anchor="start" font="10px &quot;Arial&quot;" stroke="none" fill="#000000" style="-webkit-tap-highlight-color: rgba(0, 0, 0, 0); text-anchor: start; font: 15px Arial;" id="s4t" class="flowchartt" font-size="15px" transform="matrix(1,0,0,1,16.0898,366.5486)" stroke-width="1"><tspan dy="5.171630859375" style="-webkit-tap-highlight-color: rgba(0, 0, 0, 0);">Activity: onStart()</tspan></text><rect x="0" y="0" width="158.39697265625" height="36.65673828125" r="20" rx="20" ry="20" fill="#ffffff" stroke="#000000" style="-webkit-tap-highlight-color: rgba(0, 0, 0, 0);" stroke-width="2" class="flowchart" id="s6" transform="matrix(1,0,0,1,4,457.2053)"></rect><text x="10" y="18.328369140625" text-anchor="start" font="10px &quot;Arial&quot;" stroke="none" fill="#000000" style="-webkit-tap-highlight-color: rgba(0, 0, 0, 0); text-anchor: start; font: 15px Arial;" id="s6t" class="flowchartt" font-size="15px" transform="matrix(1,0,0,1,4,457.2053)" stroke-width="1"><tspan dy="5.171630859375" style="-webkit-tap-highlight-color: rgba(0, 0, 0, 0);">Activity: onResume()</tspan><tspan dy="18" x="10" style="-webkit-tap-highlight-color: rgba(0, 0, 0, 0);"></tspan></text><path fill="none" stroke="#000000" d="M83.198486328125,40.65673828125C83.198486328125,40.65673828125,83.198486328125,80.36838743981207,83.198486328125,91.73119330256469" stroke-width="2" marker-end="url(#raphael-marker-endblock33-obj298)" style="-webkit-tap-highlight-color: rgba(0, 0, 0, 0);"></path><path fill="none" stroke="#000000" d="M83.198486328125,131.235107421875C83.198486328125,131.235107421875,83.198486328125,170.88920736312866,83.198486328125,182.23554650647566" stroke-width="2" marker-end="url(#raphael-marker-endblock33-obj298)" style="-webkit-tap-highlight-color: rgba(0, 0, 0, 0);"></path><path fill="none" stroke="#000000" d="M83.198486328125,221.891845703125C83.198486328125,221.891845703125,83.198486328125,261.54594564437866,83.198486328125,272.89228478772566" stroke-width="2" marker-end="url(#raphael-marker-endblock33-obj298)" style="-webkit-tap-highlight-color: rgba(0, 0, 0, 0);"></path><path fill="none" stroke="#000000" d="M83.198486328125,312.548583984375C83.198486328125,312.548583984375,83.198486328125,352.20268392562866,83.198486328125,363.54902306897566" stroke-width="2" marker-end="url(#raphael-marker-endblock33-obj298)" style="-webkit-tap-highlight-color: rgba(0, 0, 0, 0);"></path><path fill="none" stroke="#000000" d="M83.198486328125,403.205322265625C83.198486328125,403.205322265625,83.198486328125,442.85942220687866,83.198486328125,454.20576135022566" stroke-width="2" marker-end="url(#raphael-marker-endblock33-obj298)" style="-webkit-tap-highlight-color: rgba(0, 0, 0, 0);"></path></svg>