<?xml version="1.0" encoding="utf-8" standalone="no"?><!DOCTYPE svg PUBLIC "-//W3C//DTD SVG 20010904//EN" "http://www.w3.org/TR/2001/REC-SVG-20010904/DTD/svg10.dtd"><svg xmlns="http://www.w3.org/2000/svg" width="642" height="1465" xmlns:xlink="http://www.w3.org/1999/xlink"><source><![CDATA[Created with Raphaël 2.1.2Activity in Split ScreenActivity is Resumed?Activity: onPause()Activity: onStop()Activity: onDestroy()Activity: onCreate()Activity: onStart()Activity: onResume()Activity was Resumed?Activity ResumedActivity: onStart()Activity: onResume()yesnoyesno]]></source><desc style="-webkit-tap-highlight-color: rgba(0, 0, 0, 0);">Created with Raphaël 2.1.2</desc><defs style="-webkit-tap-highlight-color: rgba(0, 0, 0, 0);"><path stroke-linecap="round" d="M5,0 0,2.5 5,5z" id="raphael-marker-block-obj493" style="-webkit-tap-highlight-color: rgba(0, 0, 0, 0);"></path><marker id="raphael-marker-endblock33-obj494" markerHeight="3" markerWidth="3" orient="auto" refX="1.5" refY="1.5" style="-webkit-tap-highlight-color: rgba(0, 0, 0, 0);"><use xlink:href="#raphael-marker-block-obj493" transform="rotate(180 1.5 1.5) scale(0.6,0.6)" stroke-width="1.6667" fill="black" stroke="none" style="-webkit-tap-highlight-color: rgba(0, 0, 0, 0);"></use></marker></defs><rect x="0" y="0" width="168.41259765625" height="36.65673828125" r="20" rx="20" ry="20" fill="#ffffff" stroke="#000000" style="-webkit-tap-highlight-color: rgba(0, 0, 0, 0);" stroke-width="2" class="flowchart" id="op1" transform="matrix(1,0,0,1,58.6012,55.0754)"></rect><text x="10" y="18.328369140625" text-anchor="start" font="10px &quot;Arial&quot;" stroke="none" fill="#000000" style="-webkit-tap-highlight-color: rgba(0, 0, 0, 0); text-anchor: start; font: 15px Arial;" id="op1t" class="flowchartt" font-size="15px" transform="matrix(1,0,0,1,58.6012,55.0754)" stroke-width="1"><tspan dy="5.171630859375" style="-webkit-tap-highlight-color: rgba(0, 0, 0, 0);">Activity in Split Screen</tspan></text><path fill="#ffffff" stroke="#000000" d="M63.46527099609375,31.732635498046875L0,63.46527099609375L126.9305419921875,126.9305419921875L253.861083984375,63.46527099609375L126.9305419921875,0L0,63.46527099609375" stroke-width="2" id="cond" class="flowchart" style="-webkit-tap-highlight-color: rgba(0, 0, 0, 0);" transform="matrix(1,0,0,1,15.877,151.6706)"></path><text x="68.46527099609375" y="63.46527099609375" text-anchor="start" font="10px &quot;Arial&quot;" stroke="none" fill="#000000" style="-webkit-tap-highlight-color: rgba(0, 0, 0, 0); text-anchor: start; font: 15px Arial;" id="condt" class="flowchartt" font-size="15px" transform="matrix(1,0,0,1,15.877,151.6706)" stroke-width="1"><tspan dy="5.171630859375" style="-webkit-tap-highlight-color: rgba(0, 0, 0, 0);">Activity is Resumed?</tspan></text><rect x="0" y="0" width="145.06884765625" height="36.65673828125" r="20" rx="20" ry="20" fill="#ffffff" stroke="#000000" style="-webkit-tap-highlight-color: rgba(0, 0, 0, 0);" stroke-width="2" class="flowchart" id="state1" transform="matrix(1,0,0,1,70.2731,383.6765)"></rect><text x="10" y="18.328369140625" text-anchor="start" font="10px &quot;Arial&quot;" stroke="none" fill="#000000" style="-webkit-tap-highlight-color: rgba(0, 0, 0, 0); text-anchor: start; font: 15px Arial;" id="state1t" class="flowchartt" font-size="15px" transform="matrix(1,0,0,1,70.2731,383.6765)" stroke-width="1"><tspan dy="5.171630859375" style="-webkit-tap-highlight-color: rgba(0, 0, 0, 0);">Activity: onPause()</tspan></text><rect x="0" y="0" width="133.39697265625" height="36.65673828125" r="20" rx="20" ry="20" fill="#ffffff" stroke="#000000" style="-webkit-tap-highlight-color: rgba(0, 0, 0, 0);" stroke-width="2" class="flowchart" id="state5" transform="matrix(1,0,0,1,76.109,525.4086)"></rect><text x="10" y="18.328369140625" text-anchor="start" font="10px &quot;Arial&quot;" stroke="none" fill="#000000" style="-webkit-tap-highlight-color: rgba(0, 0, 0, 0); text-anchor: start; font: 15px Arial;" id="state5t" class="flowchartt" font-size="15px" transform="matrix(1,0,0,1,76.109,525.4086)" stroke-width="1"><tspan dy="5.171630859375" style="-webkit-tap-highlight-color: rgba(0, 0, 0, 0);">Activity: onStop()</tspan></text><rect x="0" y="0" width="154.21728515625" height="36.65673828125" r="20" rx="20" ry="20" fill="#ffffff" stroke="#000000" style="-webkit-tap-highlight-color: rgba(0, 0, 0, 0);" stroke-width="2" class="flowchart" id="s2" transform="matrix(1,0,0,1,65.6989,667.1407)"></rect><text x="10" y="18.328369140625" text-anchor="start" font="10px &quot;Arial&quot;" stroke="none" fill="#000000" style="-webkit-tap-highlight-color: rgba(0, 0, 0, 0); text-anchor: start; font: 15px Arial;" id="s2t" class="flowchartt" font-size="15px" transform="matrix(1,0,0,1,65.6989,667.1407)" stroke-width="1"><tspan dy="5.171630859375" style="-webkit-tap-highlight-color: rgba(0, 0, 0, 0);">Activity: onDestroy()</tspan></text><rect x="0" y="0" width="147.56103515625" height="36.65673828125" r="20" rx="20" ry="20" fill="#ffffff" stroke="#000000" style="-webkit-tap-highlight-color: rgba(0, 0, 0, 0);" stroke-width="2" class="flowchart" id="s3" transform="matrix(1,0,0,1,69.027,808.8729)"></rect><text x="10" y="18.328369140625" text-anchor="start" font="10px &quot;Arial&quot;" stroke="none" fill="#000000" style="-webkit-tap-highlight-color: rgba(0, 0, 0, 0); text-anchor: start; font: 15px Arial;" id="s3t" class="flowchartt" font-size="15px" transform="matrix(1,0,0,1,69.027,808.8729)" stroke-width="1"><tspan dy="5.171630859375" style="-webkit-tap-highlight-color: rgba(0, 0, 0, 0);">Activity: onCreate()</tspan></text><rect x="0" y="0" width="134.21728515625" height="36.65673828125" r="20" rx="20" ry="20" fill="#ffffff" stroke="#000000" style="-webkit-tap-highlight-color: rgba(0, 0, 0, 0);" stroke-width="2" class="flowchart" id="s4" transform="matrix(1,0,0,1,75.6989,950.605)"></rect><text x="10" y="18.328369140625" text-anchor="start" font="10px &quot;Arial&quot;" stroke="none" fill="#000000" style="-webkit-tap-highlight-color: rgba(0, 0, 0, 0); text-anchor: start; font: 15px Arial;" id="s4t" class="flowchartt" font-size="15px" transform="matrix(1,0,0,1,75.6989,950.605)" stroke-width="1"><tspan dy="5.171630859375" style="-webkit-tap-highlight-color: rgba(0, 0, 0, 0);">Activity: onStart()</tspan></text><rect x="0" y="0" width="158.39697265625" height="36.65673828125" r="20" rx="20" ry="20" fill="#ffffff" stroke="#000000" style="-webkit-tap-highlight-color: rgba(0, 0, 0, 0);" stroke-width="2" class="flowchart" id="s6" transform="matrix(1,0,0,1,63.609,1092.3371)"></rect><text x="10" y="18.328369140625" text-anchor="start" font="10px &quot;Arial&quot;" stroke="none" fill="#000000" style="-webkit-tap-highlight-color: rgba(0, 0, 0, 0); text-anchor: start; font: 15px Arial;" id="s6t" class="flowchartt" font-size="15px" transform="matrix(1,0,0,1,63.609,1092.3371)" stroke-width="1"><tspan dy="5.171630859375" style="-webkit-tap-highlight-color: rgba(0, 0, 0, 0);">Activity: onResume()</tspan></text><path fill="#ffffff" stroke="#000000" d="M69.40374755859375,34.701873779296875L0,69.40374755859375L138.8074951171875,138.8074951171875L277.614990234375,69.40374755859375L138.8074951171875,0L0,69.40374755859375" stroke-width="2" id="cond2" class="flowchart" style="-webkit-tap-highlight-color: rgba(0, 0, 0, 0);" transform="matrix(1,0,0,1,4,1182.9938)"></path><text x="74.40374755859375" y="69.40374755859375" text-anchor="start" font="10px &quot;Arial&quot;" stroke="none" fill="#000000" style="-webkit-tap-highlight-color: rgba(0, 0, 0, 0); text-anchor: start; font: 15px Arial;" id="cond2t" class="flowchartt" font-size="15px" transform="matrix(1,0,0,1,4,1182.9938)" stroke-width="1"><tspan dy="5.171630859375" style="-webkit-tap-highlight-color: rgba(0, 0, 0, 0);">Activity was Resumed?</tspan></text><rect x="0" y="0" width="135.89697265625" height="36.65673828125" r="0" rx="0" ry="0" fill="#ffffff" stroke="#000000" style="-webkit-tap-highlight-color: rgba(0, 0, 0, 0);" stroke-width="2" class="flowchart" id="end" transform="matrix(1,0,0,1,74.859,1426.8767)"></rect><text x="10" y="18.328369140625" text-anchor="start" font="10px &quot;Arial&quot;" stroke="none" fill="#000000" style="-webkit-tap-highlight-color: rgba(0, 0, 0, 0); text-anchor: start; font: 15px Arial;" id="endt" class="flowchartt" font-size="15px" transform="matrix(1,0,0,1,74.859,1426.8767)" stroke-width="1"><tspan dy="5.171630859375" style="-webkit-tap-highlight-color: rgba(0, 0, 0, 0);">Activity Resumed</tspan><tspan dy="18" x="10" style="-webkit-tap-highlight-color: rgba(0, 0, 0, 0);"></tspan><tspan dy="18" x="10" style="-webkit-tap-highlight-color: rgba(0, 0, 0, 0);"></tspan></text><rect x="0" y="0" width="134.21728515625" height="36.65673828125" r="20" rx="20" ry="20" fill="#ffffff" stroke="#000000" style="-webkit-tap-highlight-color: rgba(0, 0, 0, 0);" stroke-width="2" class="flowchart" id="s7" transform="matrix(1,0,0,1,407.3138,1234.0692)"></rect><text x="10" y="18.328369140625" text-anchor="start" font="10px &quot;Arial&quot;" stroke="none" fill="#000000" style="-webkit-tap-highlight-color: rgba(0, 0, 0, 0); text-anchor: start; font: 15px Arial;" id="s7t" class="flowchartt" font-size="15px" transform="matrix(1,0,0,1,407.3138,1234.0692)" stroke-width="1"><tspan dy="5.171630859375" style="-webkit-tap-highlight-color: rgba(0, 0, 0, 0);">Activity: onStart()</tspan></text><rect x="0" y="0" width="158.39697265625" height="36.65673828125" r="20" rx="20" ry="20" fill="#ffffff" stroke="#000000" style="-webkit-tap-highlight-color: rgba(0, 0, 0, 0);" stroke-width="2" class="flowchart" id="s8" transform="matrix(1,0,0,1,395.224,1375.8013)"></rect><text x="10" y="18.328369140625" text-anchor="start" font="10px &quot;Arial&quot;" stroke="none" fill="#000000" style="-webkit-tap-highlight-color: rgba(0, 0, 0, 0); text-anchor: start; font: 15px Arial;" id="s8t" class="flowchartt" font-size="15px" transform="matrix(1,0,0,1,395.224,1375.8013)" stroke-width="1"><tspan dy="5.171630859375" style="-webkit-tap-highlight-color: rgba(0, 0, 0, 0);">Activity: onResume()</tspan><tspan dy="18" x="10" style="-webkit-tap-highlight-color: rgba(0, 0, 0, 0);"></tspan></text><path fill="none" stroke="#000000" d="M142.8074951171875,91.73211669921875C142.8074951171875,91.73211669921875,142.8074951171875,136.5532587452326,142.8074951171875,148.67772783385158" stroke-width="2" marker-end="url(#raphael-marker-endblock33-obj494)" style="-webkit-tap-highlight-color: rgba(0, 0, 0, 0);"></path><path fill="none" stroke="#000000" d="M142.8074951171875,278.60113525390625C142.8074951171875,278.60113525390625,142.8074951171875,363.5091399287776,142.8074951171875,380.67316040504556" stroke-width="2" marker-end="url(#raphael-marker-endblock33-obj494)" style="-webkit-tap-highlight-color: rgba(0, 0, 0, 0);"></path><text x="147.8074951171875" y="288.60113525390625" text-anchor="start" font="10px &quot;Arial&quot;" stroke="none" fill="#000000" style="-webkit-tap-highlight-color: rgba(0, 0, 0, 0); text-anchor: start; font: 15px Arial;" font-size="15px" stroke-width="1"><tspan dy="5.171630859375" style="-webkit-tap-highlight-color: rgba(0, 0, 0, 0);">yes</tspan></text><path fill="none" stroke="#000000" d="M269.738037109375,215.1358642578125C269.738037109375,215.1358642578125,294.738037109375,215.1358642578125,294.738037109375,215.1358642578125C294.738037109375,215.1358642578125,294.738037109375,500.40863037109375,294.738037109375,500.40863037109375C294.738037109375,500.40863037109375,142.8074951171875,500.40863037109375,142.8074951171875,500.40863037109375C142.8074951171875,500.40863037109375,142.8074951171875,515.7820749282837,142.8074951171875,522.417878145352" stroke-width="2" marker-end="url(#raphael-marker-endblock33-obj494)" style="-webkit-tap-highlight-color: rgba(0, 0, 0, 0);"></path><text x="274.738037109375" y="205.1358642578125" text-anchor="start" font="10px &quot;Arial&quot;" stroke="none" fill="#000000" style="-webkit-tap-highlight-color: rgba(0, 0, 0, 0); text-anchor: start; font: 15px Arial;" font-size="15px" stroke-width="1"><tspan dy="5.25" style="-webkit-tap-highlight-color: rgba(0, 0, 0, 0);">no</tspan></text><path fill="none" stroke="#000000" d="M142.8074951171875,420.333251953125C142.8074951171875,420.333251953125,142.8074951171875,505.24125662799634,142.8074951171875,522.4052771042643" stroke-width="2" marker-end="url(#raphael-marker-endblock33-obj494)" style="-webkit-tap-highlight-color: rgba(0, 0, 0, 0);"></path><path fill="none" stroke="#000000" d="M142.8074951171875,562.0653686523438C142.8074951171875,562.0653686523438,142.8074951171875,646.9733733272151,142.8074951171875,664.1373938034831" stroke-width="2" marker-end="url(#raphael-marker-endblock33-obj494)" style="-webkit-tap-highlight-color: rgba(0, 0, 0, 0);"></path><path fill="none" stroke="#000000" d="M142.8074951171875,703.7974853515625C142.8074951171875,703.7974853515625,142.8074951171875,788.7054900264338,142.8074951171875,805.8695105027018" stroke-width="2" marker-end="url(#raphael-marker-endblock33-obj494)" style="-webkit-tap-highlight-color: rgba(0, 0, 0, 0);"></path><path fill="none" stroke="#000000" d="M142.8074951171875,845.5296020507812C142.8074951171875,845.5296020507812,142.8074951171875,930.4376067256526,142.8074951171875,947.6016272019206" stroke-width="2" marker-end="url(#raphael-marker-endblock33-obj494)" style="-webkit-tap-highlight-color: rgba(0, 0, 0, 0);"></path><path fill="none" stroke="#000000" d="M142.8074951171875,987.26171875C142.8074951171875,987.26171875,142.8074951171875,1072.1697234248713,142.8074951171875,1089.3337439011393" stroke-width="2" marker-end="url(#raphael-marker-endblock33-obj494)" style="-webkit-tap-highlight-color: rgba(0, 0, 0, 0);"></path><path fill="none" stroke="#000000" d="M142.8074951171875,1128.9938354492188C142.8074951171875,1128.9938354492188,142.8074951171875,1168.6479353904724,142.8074951171875,1179.9942745338194" stroke-width="2" marker-end="url(#raphael-marker-endblock33-obj494)" style="-webkit-tap-highlight-color: rgba(0, 0, 0, 0);"></path><path fill="none" stroke="#000000" d="M142.8074951171875,1321.8013305664062C142.8074951171875,1321.8013305664062,142.8074951171875,1406.7093352412776,142.8074951171875,1423.8733557175456" stroke-width="2" marker-end="url(#raphael-marker-endblock33-obj494)" style="-webkit-tap-highlight-color: rgba(0, 0, 0, 0);"></path><text x="147.8074951171875" y="1331.8013305664062" text-anchor="start" font="10px &quot;Arial&quot;" stroke="none" fill="#000000" style="-webkit-tap-highlight-color: rgba(0, 0, 0, 0); text-anchor: start; font: 15px Arial;" font-size="15px" stroke-width="1"><tspan dy="5.17169189453125" style="-webkit-tap-highlight-color: rgba(0, 0, 0, 0);">yes</tspan></text><path fill="none" stroke="#000000" d="M281.614990234375,1252.3975830078125C281.614990234375,1252.3975830078125,385.2398066051319,1252.3975830078125,404.31527329056905,1252.3975830078125" stroke-width="2" marker-end="url(#raphael-marker-endblock33-obj494)" style="-webkit-tap-highlight-color: rgba(0, 0, 0, 0);"></path><text x="286.614990234375" y="1242.3975830078125" text-anchor="start" font="10px &quot;Arial&quot;" stroke="none" fill="#000000" style="-webkit-tap-highlight-color: rgba(0, 0, 0, 0); text-anchor: start; font: 15px Arial;" font-size="15px" stroke-width="1"><tspan dy="5.25" style="-webkit-tap-highlight-color: rgba(0, 0, 0, 0);">no</tspan></text><path fill="none" stroke="#000000" d="M474.4224853515625,1270.7259521484375C474.4224853515625,1270.7259521484375,474.4224853515625,1355.6339568233088,474.4224853515625,1372.7979772995768" stroke-width="2" marker-end="url(#raphael-marker-endblock33-obj494)" style="-webkit-tap-highlight-color: rgba(0, 0, 0, 0);"></path><path fill="none" stroke="#000000" d="M474.4224853515625,1412.4580688476562C474.4224853515625,1412.4580688476562,474.4224853515625,1401.876708984375,474.4224853515625,1401.876708984375C474.4224853515625,1401.876708984375,142.8074951171875,1401.876708984375,142.8074951171875,1401.876708984375C142.8074951171875,1401.876708984375,142.8074951171875,1417.250153541565,142.8074951171875,1423.8859567586333" stroke-width="2" marker-end="url(#raphael-marker-endblock33-obj494)" style="-webkit-tap-highlight-color: rgba(0, 0, 0, 0);"></path></svg>