<?xml version="1.0" encoding="utf-8" standalone="no"?><!DOCTYPE svg PUBLIC "-//W3C//DTD SVG 20010904//EN" "http://www.w3.org/TR/2001/REC-SVG-20010904/DTD/svg10.dtd"><svg xmlns="http://www.w3.org/2000/svg" width="642" height="1724" xmlns:xlink="http://www.w3.org/1999/xlink"><source><![CDATA[Created with Raphaël 2.1.2Activity in Split ScreenResumed?onPause()onSaveInstanceState()onStop()onDestroy()onCreate()onStart()onRestoreInstanceState()onResume()Activity was Resumed?Activity ResumedonStart()onResume()yesnoyesno]]></source><desc style="-webkit-tap-highlight-color: rgba(0, 0, 0, 0);">Created with Raphaël 2.1.2</desc><defs style="-webkit-tap-highlight-color: rgba(0, 0, 0, 0);"><path stroke-linecap="round" d="M5,0 0,2.5 5,5z" id="raphael-marker-block-obj279" style="-webkit-tap-highlight-color: rgba(0, 0, 0, 0);"></path><marker id="raphael-marker-endblock33-obj280" markerHeight="3" markerWidth="3" orient="auto" refX="1.5" refY="1.5" style="-webkit-tap-highlight-color: rgba(0, 0, 0, 0);"><use xlink:href="#raphael-marker-block-obj279" transform="rotate(180 1.5 1.5) scale(0.6,0.6)" stroke-width="1.6667" fill="black" stroke="none" style="-webkit-tap-highlight-color: rgba(0, 0, 0, 0);"></use></marker></defs><rect x="0" y="0" width="168.421875" height="36.671875" r="20" rx="20" ry="20" fill="#ffffff" stroke="#000000" style="-webkit-tap-highlight-color: rgba(0, 0, 0, 0);" stroke-width="2" class="flowchart" id="st" transform="matrix(1,0,0,1,58.6094,55.0742)"></rect><text x="10" y="18.3359375" text-anchor="start" font="10px &quot;Arial&quot;" stroke="none" fill="#000000" style="-webkit-tap-highlight-color: rgba(0, 0, 0, 0); text-anchor: start; font: 15px Arial;" id="stt" class="flowchartt" font-size="15px" transform="matrix(1,0,0,1,58.6094,55.0742)" stroke-width="1"><tspan style="-webkit-tap-highlight-color: rgba(0, 0, 0, 0);" dy="5.171875">Activity in Split Screen</tspan></text><path fill="#ffffff" stroke="#000000" d="M38.455078125,19.2275390625L0,38.455078125L76.91015625,76.91015625L153.8203125,38.455078125L76.91015625,0L0,38.455078125" stroke-width="2" id="cond" class="flowchart" style="-webkit-tap-highlight-color: rgba(0, 0, 0, 0);" transform="matrix(1,0,0,1,65.9102,176.7012)"></path><text x="43.455078125" y="38.455078125" text-anchor="start" font="10px &quot;Arial&quot;" stroke="none" fill="#000000" style="-webkit-tap-highlight-color: rgba(0, 0, 0, 0); text-anchor: start; font: 15px Arial;" id="condt" class="flowchartt" font-size="15px" transform="matrix(1,0,0,1,65.9102,176.7012)" stroke-width="1"><tspan style="-webkit-tap-highlight-color: rgba(0, 0, 0, 0);" dy="5.244140625">Resumed?</tspan></text><rect x="0" y="0" width="89.21875" height="36.671875" r="0" rx="0" ry="0" fill="#ffffff" stroke="#000000" style="-webkit-tap-highlight-color: rgba(0, 0, 0, 0);" stroke-width="2" class="flowchart" id="op1" transform="matrix(1,0,0,1,98.2109,358.6855)"></rect><text x="10" y="18.3359375" text-anchor="start" font="10px &quot;Arial&quot;" stroke="none" fill="#000000" style="-webkit-tap-highlight-color: rgba(0, 0, 0, 0); text-anchor: start; font: 15px Arial;" id="op1t" class="flowchartt" font-size="15px" transform="matrix(1,0,0,1,98.2109,358.6855)" stroke-width="1"><tspan style="-webkit-tap-highlight-color: rgba(0, 0, 0, 0);" dy="5.171875">onPause()</tspan></text><rect x="0" y="0" width="172.59375" height="36.671875" r="0" rx="0" ry="0" fill="#ffffff" stroke="#000000" style="-webkit-tap-highlight-color: rgba(0, 0, 0, 0);" stroke-width="2" class="flowchart" id="op2" transform="matrix(1,0,0,1,56.5234,500.4316)"></rect><text x="10" y="18.3359375" text-anchor="start" font="10px &quot;Arial&quot;" stroke="none" fill="#000000" style="-webkit-tap-highlight-color: rgba(0, 0, 0, 0); text-anchor: start; font: 15px Arial;" id="op2t" class="flowchartt" font-size="15px" transform="matrix(1,0,0,1,56.5234,500.4316)" stroke-width="1"><tspan style="-webkit-tap-highlight-color: rgba(0, 0, 0, 0);" dy="5.171875">onSaveInstanceState()</tspan></text><rect x="0" y="0" width="77.546875" height="36.671875" r="0" rx="0" ry="0" fill="#ffffff" stroke="#000000" style="-webkit-tap-highlight-color: rgba(0, 0, 0, 0);" stroke-width="2" class="flowchart" id="op3" transform="matrix(1,0,0,1,104.0469,642.1777)"></rect><text x="10" y="18.3359375" text-anchor="start" font="10px &quot;Arial&quot;" stroke="none" fill="#000000" style="-webkit-tap-highlight-color: rgba(0, 0, 0, 0); text-anchor: start; font: 15px Arial;" id="op3t" class="flowchartt" font-size="15px" transform="matrix(1,0,0,1,104.0469,642.1777)" stroke-width="1"><tspan style="-webkit-tap-highlight-color: rgba(0, 0, 0, 0);" dy="5.171875">onStop()</tspan></text><rect x="0" y="0" width="98.359375" height="36.671875" r="0" rx="0" ry="0" fill="#ffffff" stroke="#000000" style="-webkit-tap-highlight-color: rgba(0, 0, 0, 0);" stroke-width="2" class="flowchart" id="op4" transform="matrix(1,0,0,1,93.6406,783.9238)"></rect><text x="10" y="18.3359375" text-anchor="start" font="10px &quot;Arial&quot;" stroke="none" fill="#000000" style="-webkit-tap-highlight-color: rgba(0, 0, 0, 0); text-anchor: start; font: 15px Arial;" id="op4t" class="flowchartt" font-size="15px" transform="matrix(1,0,0,1,93.6406,783.9238)" stroke-width="1"><tspan style="-webkit-tap-highlight-color: rgba(0, 0, 0, 0);" dy="5.171875">onDestroy()</tspan></text><rect x="0" y="0" width="91.703125" height="36.671875" r="0" rx="0" ry="0" fill="#ffffff" stroke="#000000" style="-webkit-tap-highlight-color: rgba(0, 0, 0, 0);" stroke-width="2" class="flowchart" id="op5" transform="matrix(1,0,0,1,96.9688,925.6699)"></rect><text x="10" y="18.3359375" text-anchor="start" font="10px &quot;Arial&quot;" stroke="none" fill="#000000" style="-webkit-tap-highlight-color: rgba(0, 0, 0, 0); text-anchor: start; font: 15px Arial;" id="op5t" class="flowchartt" font-size="15px" transform="matrix(1,0,0,1,96.9688,925.6699)" stroke-width="1"><tspan style="-webkit-tap-highlight-color: rgba(0, 0, 0, 0);" dy="5.171875">onCreate()</tspan></text><rect x="0" y="0" width="78.359375" height="36.671875" r="0" rx="0" ry="0" fill="#ffffff" stroke="#000000" style="-webkit-tap-highlight-color: rgba(0, 0, 0, 0);" stroke-width="2" class="flowchart" id="op6" transform="matrix(1,0,0,1,103.6406,1067.416)"></rect><text x="10" y="18.3359375" text-anchor="start" font="10px &quot;Arial&quot;" stroke="none" fill="#000000" style="-webkit-tap-highlight-color: rgba(0, 0, 0, 0); text-anchor: start; font: 15px Arial;" id="op6t" class="flowchartt" font-size="15px" transform="matrix(1,0,0,1,103.6406,1067.416)" stroke-width="1"><tspan style="-webkit-tap-highlight-color: rgba(0, 0, 0, 0);" dy="5.171875">onStart()</tspan></text><rect x="0" y="0" width="190.9375" height="36.671875" r="0" rx="0" ry="0" fill="#ffffff" stroke="#000000" style="-webkit-tap-highlight-color: rgba(0, 0, 0, 0);" stroke-width="2" class="flowchart" id="op7" transform="matrix(1,0,0,1,47.3516,1209.1621)"></rect><text x="10" y="18.3359375" text-anchor="start" font="10px &quot;Arial&quot;" stroke="none" fill="#000000" style="-webkit-tap-highlight-color: rgba(0, 0, 0, 0); text-anchor: start; font: 15px Arial;" id="op7t" class="flowchartt" font-size="15px" transform="matrix(1,0,0,1,47.3516,1209.1621)" stroke-width="1"><tspan style="-webkit-tap-highlight-color: rgba(0, 0, 0, 0);" dy="5.171875">onRestoreInstanceState()</tspan></text><rect x="0" y="0" width="102.53125" height="36.671875" r="0" rx="0" ry="0" fill="#ffffff" stroke="#000000" style="-webkit-tap-highlight-color: rgba(0, 0, 0, 0);" stroke-width="2" class="flowchart" id="op8" transform="matrix(1,0,0,1,91.5547,1350.9082)"></rect><text x="10" y="18.3359375" text-anchor="start" font="10px &quot;Arial&quot;" stroke="none" fill="#000000" style="-webkit-tap-highlight-color: rgba(0, 0, 0, 0); text-anchor: start; font: 15px Arial;" id="op8t" class="flowchartt" font-size="15px" transform="matrix(1,0,0,1,91.5547,1350.9082)" stroke-width="1"><tspan style="-webkit-tap-highlight-color: rgba(0, 0, 0, 0);" dy="5.171875">onResume()</tspan></text><path fill="#ffffff" stroke="#000000" d="M69.41015625,34.705078125L0,69.41015625L138.8203125,138.8203125L277.640625,69.41015625L138.8203125,0L0,69.41015625" stroke-width="2" id="cond2" class="flowchart" style="-webkit-tap-highlight-color: rgba(0, 0, 0, 0);" transform="matrix(1,0,0,1,4,1441.5801)"></path><text x="74.41015625" y="69.41015625" text-anchor="start" font="10px &quot;Arial&quot;" stroke="none" fill="#000000" style="-webkit-tap-highlight-color: rgba(0, 0, 0, 0); text-anchor: start; font: 15px Arial;" id="cond2t" class="flowchartt" font-size="15px" transform="matrix(1,0,0,1,4,1441.5801)" stroke-width="1"><tspan style="-webkit-tap-highlight-color: rgba(0, 0, 0, 0);" dy="5.16796875">Activity was Resumed?</tspan></text><rect x="0" y="0" width="135.90625" height="36.671875" r="20" rx="20" ry="20" fill="#ffffff" stroke="#000000" style="-webkit-tap-highlight-color: rgba(0, 0, 0, 0);" stroke-width="2" class="flowchart" id="e" transform="matrix(1,0,0,1,74.8672,1685.4746)"></rect><text x="10" y="18.3359375" text-anchor="start" font="10px &quot;Arial&quot;" stroke="none" fill="#000000" style="-webkit-tap-highlight-color: rgba(0, 0, 0, 0); text-anchor: start; font: 15px Arial;" id="et" class="flowchartt" font-size="15px" transform="matrix(1,0,0,1,74.8672,1685.4746)" stroke-width="1"><tspan style="-webkit-tap-highlight-color: rgba(0, 0, 0, 0);" dy="5.171875">Activity Resumed</tspan><tspan dy="18" x="10" style="-webkit-tap-highlight-color: rgba(0, 0, 0, 0);"></tspan></text><rect x="0" y="0" width="78.359375" height="36.671875" r="0" rx="0" ry="0" fill="#ffffff" stroke="#000000" style="-webkit-tap-highlight-color: rgba(0, 0, 0, 0);" stroke-width="2" class="flowchart" id="op9" transform="matrix(1,0,0,1,435.2813,1492.6543)"></rect><text x="10" y="18.3359375" text-anchor="start" font="10px &quot;Arial&quot;" stroke="none" fill="#000000" style="-webkit-tap-highlight-color: rgba(0, 0, 0, 0); text-anchor: start; font: 15px Arial;" id="op9t" class="flowchartt" font-size="15px" transform="matrix(1,0,0,1,435.2813,1492.6543)" stroke-width="1"><tspan style="-webkit-tap-highlight-color: rgba(0, 0, 0, 0);" dy="5.171875">onStart()</tspan></text><rect x="0" y="0" width="102.53125" height="36.671875" r="0" rx="0" ry="0" fill="#ffffff" stroke="#000000" style="-webkit-tap-highlight-color: rgba(0, 0, 0, 0);" stroke-width="2" class="flowchart" id="op10" transform="matrix(1,0,0,1,423.1953,1634.4004)"></rect><text x="10" y="18.3359375" text-anchor="start" font="10px &quot;Arial&quot;" stroke="none" fill="#000000" style="-webkit-tap-highlight-color: rgba(0, 0, 0, 0); text-anchor: start; font: 15px Arial;" id="op10t" class="flowchartt" font-size="15px" transform="matrix(1,0,0,1,423.1953,1634.4004)" stroke-width="1"><tspan style="-webkit-tap-highlight-color: rgba(0, 0, 0, 0);" dy="5.171875">onResume()</tspan></text><path fill="none" stroke="#000000" d="M142.8203125,91.74609375C142.8203125,91.74609375,142.8203125,158.6173209962435,142.8203125,173.7025294863629" stroke-width="2" marker-end="url(#raphael-marker-endblock33-obj280)" style="-webkit-tap-highlight-color: rgba(0, 0, 0, 0);"></path><path fill="none" stroke="#000000" d="M142.8203125,253.611328125C142.8203125,253.611328125,142.8203125,338.5183957098052,142.8203125,355.68222675478046" stroke-width="2" marker-end="url(#raphael-marker-endblock33-obj280)" style="-webkit-tap-highlight-color: rgba(0, 0, 0, 0);"></path><text x="147.8203125" y="263.611328125" text-anchor="start" font="10px &quot;Arial&quot;" stroke="none" fill="#000000" style="-webkit-tap-highlight-color: rgba(0, 0, 0, 0); text-anchor: start; font: 15px Arial;" font-size="15px" stroke-width="1"><tspan style="-webkit-tap-highlight-color: rgba(0, 0, 0, 0);" dy="5.166015625">yes</tspan></text><path fill="none" stroke="#000000" d="M219.73046875,215.15625C219.73046875,215.15625,244.73046875,215.15625,244.73046875,215.15625C244.73046875,215.15625,244.73046875,475.431640625,244.73046875,475.431640625C244.73046875,475.431640625,142.8203125,475.431640625,142.8203125,475.431640625C142.8203125,475.431640625,142.8203125,490.80508518218994,142.8203125,497.44088839925826" stroke-width="2" marker-end="url(#raphael-marker-endblock33-obj280)" style="-webkit-tap-highlight-color: rgba(0, 0, 0, 0);"></path><text x="224.73046875" y="205.15625" text-anchor="start" font="10px &quot;Arial&quot;" stroke="none" fill="#000000" style="-webkit-tap-highlight-color: rgba(0, 0, 0, 0); text-anchor: start; font: 15px Arial;" font-size="15px" stroke-width="1"><tspan style="-webkit-tap-highlight-color: rgba(0, 0, 0, 0);" dy="5.25">no</tspan></text><path fill="none" stroke="#000000" d="M142.8203125,395.357421875C142.8203125,395.357421875,142.8203125,480.2644894598052,142.8203125,497.42832050478046" stroke-width="2" marker-end="url(#raphael-marker-endblock33-obj280)" style="-webkit-tap-highlight-color: rgba(0, 0, 0, 0);"></path><path fill="none" stroke="#000000" d="M142.8203125,537.103515625C142.8203125,537.103515625,142.8203125,622.0105832098052,142.8203125,639.1744142547805" stroke-width="2" marker-end="url(#raphael-marker-endblock33-obj280)" style="-webkit-tap-highlight-color: rgba(0, 0, 0, 0);"></path><path fill="none" stroke="#000000" d="M142.8203125,678.849609375C142.8203125,678.849609375,142.8203125,763.7566769598052,142.8203125,780.9205080047805" stroke-width="2" marker-end="url(#raphael-marker-endblock33-obj280)" style="-webkit-tap-highlight-color: rgba(0, 0, 0, 0);"></path><path fill="none" stroke="#000000" d="M142.8203125,820.595703125C142.8203125,820.595703125,142.8203125,905.5027707098052,142.8203125,922.6666017547805" stroke-width="2" marker-end="url(#raphael-marker-endblock33-obj280)" style="-webkit-tap-highlight-color: rgba(0, 0, 0, 0);"></path><path fill="none" stroke="#000000" d="M142.8203125,962.341796875C142.8203125,962.341796875,142.8203125,1047.2488644598052,142.8203125,1064.4126955047805" stroke-width="2" marker-end="url(#raphael-marker-endblock33-obj280)" style="-webkit-tap-highlight-color: rgba(0, 0, 0, 0);"></path><path fill="none" stroke="#000000" d="M142.8203125,1104.087890625C142.8203125,1104.087890625,142.8203125,1188.9949582098052,142.8203125,1206.1587892547805" stroke-width="2" marker-end="url(#raphael-marker-endblock33-obj280)" style="-webkit-tap-highlight-color: rgba(0, 0, 0, 0);"></path><path fill="none" stroke="#000000" d="M142.8203125,1245.833984375C142.8203125,1245.833984375,142.8203125,1330.7410519598052,142.8203125,1347.9048830047805" stroke-width="2" marker-end="url(#raphael-marker-endblock33-obj280)" style="-webkit-tap-highlight-color: rgba(0, 0, 0, 0);"></path><path fill="none" stroke="#000000" d="M142.8203125,1387.580078125C142.8203125,1387.580078125,142.8203125,1427.2341780662537,142.8203125,1438.5805172096007" stroke-width="2" marker-end="url(#raphael-marker-endblock33-obj280)" style="-webkit-tap-highlight-color: rgba(0, 0, 0, 0);"></path><path fill="none" stroke="#000000" d="M142.8203125,1580.400390625C142.8203125,1580.400390625,142.8203125,1665.3074582098052,142.8203125,1682.4712892547805" stroke-width="2" marker-end="url(#raphael-marker-endblock33-obj280)" style="-webkit-tap-highlight-color: rgba(0, 0, 0, 0);"></path><text x="147.8203125" y="1590.400390625" text-anchor="start" font="10px &quot;Arial&quot;" stroke="none" fill="#000000" style="-webkit-tap-highlight-color: rgba(0, 0, 0, 0); text-anchor: start; font: 15px Arial;" font-size="15px" stroke-width="1"><tspan style="-webkit-tap-highlight-color: rgba(0, 0, 0, 0);" dy="5.173828125">yes</tspan></text><path fill="none" stroke="#000000" d="M281.640625,1510.990234375C281.640625,1510.990234375,410.8331351429224,1510.990234375,432.2811104596185,1510.990234375" stroke-width="2" marker-end="url(#raphael-marker-endblock33-obj280)" style="-webkit-tap-highlight-color: rgba(0, 0, 0, 0);"></path><text x="286.640625" y="1500.990234375" text-anchor="start" font="10px &quot;Arial&quot;" stroke="none" fill="#000000" style="-webkit-tap-highlight-color: rgba(0, 0, 0, 0); text-anchor: start; font: 15px Arial;" font-size="15px" stroke-width="1"><tspan style="-webkit-tap-highlight-color: rgba(0, 0, 0, 0);" dy="5.248046875">no</tspan></text><path fill="none" stroke="#000000" d="M474.4609375,1529.326171875C474.4609375,1529.326171875,474.4609375,1614.2332394598052,474.4609375,1631.3970705047805" stroke-width="2" marker-end="url(#raphael-marker-endblock33-obj280)" style="-webkit-tap-highlight-color: rgba(0, 0, 0, 0);"></path><path fill="none" stroke="#000000" d="M474.4609375,1671.072265625C474.4609375,1671.072265625,474.4609375,1660.474609375,474.4609375,1660.474609375C474.4609375,1660.474609375,142.8203125,1660.474609375,142.8203125,1660.474609375C142.8203125,1660.474609375,142.8203125,1675.84805393219,142.8203125,1682.4838571492583" stroke-width="2" marker-end="url(#raphael-marker-endblock33-obj280)" style="-webkit-tap-highlight-color: rgba(0, 0, 0, 0);"></path></svg>